<?xml version="1.0" standalone="no"?>
<!DOCTYPE svg PUBLIC "-//W3C//DTD SVG 20010904//EN"
 "http://www.w3.org/TR/2001/REC-SVG-20010904/DTD/svg10.dtd">
<svg version="1.0" xmlns="http://www.w3.org/2000/svg"
 width="2000.000000pt" height="510.000000pt" viewBox="0 0 2000.000000 510.000000"
 preserveAspectRatio="xMidYMid meet">

<g transform="translate(0.000000,510.000000) scale(0.100000,-0.100000)"
fill="#000000" stroke="none">
<path d="M5400 2550 l0 -2490 55 0 55 0 0 2490 0 2490 -55 0 -55 0 0 -2490z"/>
<path d="M430 4651 c-90 -29 -175 -105 -213 -189 -14 -34 -21 -69 -21 -122 -1
-116 27 -166 174 -315 l120 -121 0 -414 c0 -459 4 -497 60 -578 38 -55 101
-107 156 -125 l39 -14 3 -67 c2 -57 0 -67 -15 -72 -90 -26 -170 -93 -215 -176
-23 -43 -23 -47 -23 -408 0 -364 0 -365 24 -410 49 -94 145 -165 240 -179 38
-5 49 -11 61 -36 63 -124 138 -223 222 -292 l48 -38 -173 -5 c-170 -5 -173 -5
-239 -38 -76 -37 -120 -83 -156 -161 -31 -67 -34 -161 -8 -238 22 -66 92 -145
160 -181 l51 -27 815 0 815 0 49 24 c92 45 163 141 181 243 l7 37 67 -68 c111
-115 248 -191 404 -226 62 -13 147 -15 617 -13 l545 3 49 24 c66 33 122 91
155 160 35 75 37 192 4 263 -30 66 -96 133 -162 165 l-56 28 -505 5 c-358 4
-511 8 -525 17 -31 18 -73 65 -84 96 -7 18 -11 157 -11 385 0 380 -6 466 -45
630 -106 442 -421 836 -834 1042 -154 76 -316 123 -549 156 -30 5 -33 8 -27
27 4 12 9 121 12 242 l5 220 119 121 c141 143 172 197 172 303 1 102 -25 165
-97 237 -76 75 -140 99 -250 92 -108 -7 -138 -27 -343 -231 l-183 -182 -182
182 c-113 112 -200 190 -228 204 -49 24 -182 36 -230 20z m157 -151 c15 -6
130 -113 256 -238 l227 -227 228 227 c125 125 240 232 255 238 40 15 113 12
146 -5 64 -33 107 -118 95 -186 -10 -54 -35 -86 -169 -219 l-125 -125 0 -205
c0 -223 -9 -299 -45 -403 -51 -147 -176 -289 -320 -364 -90 -46 -128 -58 -237
-73 -99 -14 -149 -2 -199 49 -20 20 -42 54 -48 76 -7 26 -11 190 -11 480 l0
440 -125 125 c-132 131 -159 165 -170 217 -14 68 35 161 100 189 37 16 104 18
142 4z m1249 -1265 c533 -121 950 -546 1076 -1098 19 -83 21 -135 27 -522 6
-413 7 -432 28 -477 29 -63 96 -134 158 -166 l50 -27 505 -5 c454 -4 508 -7
537 -22 120 -66 121 -240 1 -308 -37 -21 -45 -21 -585 -18 l-548 3 -67 26
c-98 38 -172 86 -242 155 -109 110 -171 244 -183 396 -5 67 -10 86 -29 105
-28 28 -64 29 -95 4 -24 -19 -24 -20 -29 -298 -5 -277 -5 -280 -30 -316 -13
-20 -41 -45 -61 -56 -36 -21 -49 -21 -803 -21 -625 0 -773 3 -799 14 -43 18
-84 67 -98 118 -22 84 35 184 118 207 24 7 197 11 460 11 l421 0 4 297 c4 270
6 303 25 353 70 188 169 304 335 391 80 41 94 59 86 109 -2 13 -15 32 -30 43
-24 18 -32 19 -65 9 -48 -14 -146 -73 -219 -132 -75 -60 -156 -165 -204 -264
-65 -137 -72 -174 -77 -428 -3 -126 -8 -228 -12 -228 -4 0 -42 9 -85 20 -123
31 -209 81 -306 179 -83 84 -151 186 -134 200 5 4 30 24 56 44 33 26 57 58 80
104 32 65 33 72 37 210 l3 142 243 3 c222 3 245 5 264 22 27 25 28 79 1 106
-19 19 -33 20 -340 20 l-320 0 0 -187 c0 -104 -5 -204 -10 -225 -13 -45 -76
-103 -127 -117 -71 -19 -145 11 -190 79 -23 32 -23 38 -23 352 0 357 1 365 68
416 35 26 39 27 213 32 201 6 219 12 219 78 0 62 -19 72 -137 72 l-103 0 0 63
0 63 70 12 c93 16 212 63 291 114 123 79 263 237 309 347 l13 33 74 -7 c41 -4
121 -17 179 -30z"/>
<path d="M9943 3849 c-586 -85 -995 -519 -1029 -1094 -36 -603 349 -1098 958
-1232 118 -26 437 -26 558 0 528 113 890 512 942 1038 43 447 -150 862 -511
1098 -152 99 -344 168 -531 191 -99 12 -299 11 -387 -1z m327 -559 c36 -6 101
-28 147 -49 145 -69 244 -196 290 -371 23 -88 23 -290 0 -380 -41 -156 -144
-298 -264 -363 -165 -88 -430 -88 -596 0 -75 40 -176 145 -214 224 -50 102
-67 185 -67 334 0 208 47 338 164 456 131 132 318 184 540 149z"/>
<path d="M6637 3813 c-4 -3 -7 -516 -7 -1140 l0 -1133 320 0 320 0 0 450 0
450 370 0 370 0 0 -450 0 -450 320 0 320 0 -2 1138 -3 1137 -317 3 -318 2 0
-425 0 -425 -370 0 -370 0 0 425 0 425 -313 0 c-173 0 -317 -3 -320 -7z"/>
<path d="M11640 2680 l0 -1140 320 0 320 0 0 400 0 400 244 0 c263 0 364 11
488 54 163 57 314 189 387 338 61 124 75 190 75 348 0 159 -14 224 -76 350
-79 161 -242 292 -433 349 -121 36 -221 41 -782 41 l-543 0 0 -1140z m1017
665 c72 -21 128 -66 160 -127 23 -45 27 -65 27 -138 1 -102 -23 -160 -87 -215
-63 -54 -115 -65 -309 -65 l-168 0 0 280 0 280 163 0 c116 0 178 -4 214 -15z"/>
<path d="M13710 2681 l0 -1141 320 0 320 0 0 399 0 399 283 4 c324 6 375 14
532 92 217 108 348 303 375 557 41 396 -169 701 -552 801 -80 21 -106 22 -680
25 l-598 4 0 -1140z m1050 653 c59 -27 116 -87 135 -143 8 -25 15 -79 15 -122
0 -100 -33 -168 -104 -216 -69 -47 -102 -53 -288 -53 l-168 0 0 281 0 281 183
-4 c158 -3 188 -6 227 -24z"/>
<path d="M15780 2680 l0 -1140 865 0 865 0 0 265 0 265 -550 0 -550 0 0 185 0
185 490 0 490 0 0 260 0 260 -490 0 -490 0 0 165 0 165 540 0 540 0 0 265 0
265 -855 0 -855 0 0 -1140z"/>
<path d="M17820 2680 l0 -1140 320 0 320 0 2 457 3 456 290 -456 290 -456 363
-1 363 0 -19 28 c-428 607 -642 916 -635 922 4 4 31 15 58 24 184 59 353 225
416 406 30 88 38 275 15 373 -44 186 -172 340 -361 432 -180 87 -251 95 -907
95 l-518 0 0 -1140z m1035 657 c87 -39 134 -113 135 -210 0 -96 -41 -165 -125
-210 -36 -19 -60 -22 -222 -25 l-183 -4 0 237 0 237 178 -4 c141 -3 185 -7
217 -21z"/>
</g>
</svg>
